<svg width="36" height="36" viewBox="0 0 36 36" fill="none" xmlns="http://www.w3.org/2000/svg">
<path fill-rule="evenodd" clip-rule="evenodd" d="M4.83691 8.9624C4.83691 8.34108 5.34059 7.8374 5.96191 7.8374H29.9619C30.5833 7.8374 31.0869 8.34108 31.0869 8.9624C31.0869 9.58372 30.5833 10.0874 29.9619 10.0874H5.96191C5.34059 10.0874 4.83691 9.58372 4.83691 8.9624Z" fill="#50534F"/>
<path fill-rule="evenodd" clip-rule="evenodd" d="M4.83691 17.9624C4.83691 17.3411 5.34059 16.8374 5.96191 16.8374H29.9619C30.5833 16.8374 31.0869 17.3411 31.0869 17.9624C31.0869 18.5837 30.5833 19.0874 29.9619 19.0874H5.96191C5.34059 19.0874 4.83691 18.5837 4.83691 17.9624Z" fill="#50534F"/>
<path fill-rule="evenodd" clip-rule="evenodd" d="M4.83691 26.9624C4.83691 26.3411 5.34059 25.8374 5.96191 25.8374H29.9619C30.5833 25.8374 31.0869 26.3411 31.0869 26.9624C31.0869 27.5837 30.5833 28.0874 29.9619 28.0874H5.96191C5.34059 28.0874 4.83691 27.5837 4.83691 26.9624Z" fill="#50534F"/>
</svg>
