<svg width="39" height="39" viewBox="0 0 39 39" fill="none" xmlns="http://www.w3.org/2000/svg">
<path d="M35.5575 0H2.835C1.2675 0 0 1.2375 0 2.7675V35.625C0 37.155 1.2675 38.4 2.835 38.4H35.5575C37.125 38.4 38.4 37.155 38.4 35.6325V2.7675C38.4 1.2375 37.125 0 35.5575 0ZM11.3925 32.7225H5.6925V14.3925H11.3925V32.7225ZM8.5425 11.895C6.7125 11.895 5.235 10.4175 5.235 8.595C5.235 6.7725 6.7125 5.295 8.5425 5.295C10.365 5.295 11.8425 6.7725 11.8425 8.595C11.8425 10.41 10.365 11.895 8.5425 11.895ZM32.7225 32.7225H27.03V23.8125C27.03 21.69 26.9925 18.9525 24.0675 18.9525C21.105 18.9525 20.655 21.27 20.655 23.6625V32.7225H14.97V14.3925H20.43V16.8975H20.505C21.2625 15.4575 23.1225 13.935 25.89 13.935C31.6575 13.935 32.7225 17.73 32.7225 22.665V32.7225Z" fill="#FB3F5C"/>
</svg>
